<?xml version="1.0" encoding="utf-8"?>
<!-- Generator: Adobe Illustrator 16.0.0, SVG Export Plug-In . SVG Version: 6.00 Build 0)  -->
<!DOCTYPE svg PUBLIC "-//W3C//DTD SVG 1.1//EN" "http://www.w3.org/Graphics/SVG/1.1/DTD/svg11.dtd">
<svg version="1.1" id="Layer_1" xmlns="http://www.w3.org/2000/svg" xmlns:xlink="http://www.w3.org/1999/xlink" x="0px" y="0px"
	 width="600px" height="600px" viewBox="0 0 600 600" enable-background="new 0 0 600 600" xml:space="preserve">
<g>
	<g>
		<path fill-rule="evenodd" clip-rule="evenodd" fill="#FFFFFF" d="M18.146,593.205l187.844-53.67L71.816,405.361L18.146,593.205z
			 M581.212,114l-83.86-83.859c-13.229-13.229-34.962-13.172-49.803-0.344l-0.085-0.085L95.488,381.689l134.175,134.174
			l349.828-349.829c0.015-0.015,0.029-0.027,0.043-0.041s0.026-0.029,0.041-0.043l2.063-2.064l-0.083-0.083
			C594.38,148.958,594.438,127.229,581.212,114z M226.614,438.557l-53.67-53.668L474.584,83.247l53.67,53.671L226.614,438.557z"/>
	</g>
</g>
<g>
	<g>
		<path fill-rule="evenodd" clip-rule="evenodd" fill="#333333" d="M16.972,580.289l187.844-53.67L70.643,392.447L16.972,580.289z
			 M580.037,101.084l-83.86-83.859c-13.227-13.23-34.96-13.172-49.801-0.345l-0.085-0.084L94.314,368.773l134.175,134.174
			l349.839-349.839c0.01-0.011,0.021-0.021,0.031-0.031c0.012-0.01,0.021-0.021,0.031-0.032l2.075-2.076l-0.084-0.084
			C593.206,136.041,593.265,114.313,580.037,101.084z M225.44,425.641l-53.671-53.67L473.41,70.33l53.67,53.671L225.44,425.641z"/>
	</g>
</g>
</svg>
